<svg xmlns="http://www.w3.org/2000/svg" version="1.1" xmlns:xlink="http://www.w3.org/1999/xlink" xmlns:svgjs="http://svgjs.com/svgjs" width="1440" height="560" preserveAspectRatio="none" viewBox="0 0 1440 560"><g mask="url(&quot;#SvgjsMask1254&quot;)" fill="none"><rect width="1440" height="560" x="0" y="0" fill="url(#SvgjsLinearGradient1255)"></rect><path d="M1440 0L919.2 0L1440 51.15z" fill="rgba(255, 255, 255, .1)"></path><path d="M919.2 0L1440 51.15L1440 84.81L754.6500000000001 0z" fill="rgba(255, 255, 255, .075)"></path><path d="M754.6500000000001 0L1440 84.81L1440 324.6L661.0900000000001 0z" fill="rgba(255, 255, 255, .05)"></path><path d="M661.0900000000001 0L1440 324.6L1440 437.46000000000004L623.5000000000001 0z" fill="rgba(255, 255, 255, .025)"></path><path d="M0 560L533.78 560L0 395.64z" fill="rgba(0, 0, 0, .1)"></path><path d="M0 395.64L533.78 560L873.51 560L0 290.09z" fill="rgba(0, 0, 0, .075)"></path><path d="M0 290.09L873.51 560L983.3 560L0 205.45999999999998z" fill="rgba(0, 0, 0, .05)"></path><path d="M0 205.45999999999998L983.3 560L1218.06 560L0 97.09999999999998z" fill="rgba(0, 0, 0, .025)"></path></g><defs><mask id="SvgjsMask1254"><rect width="1440" height="560" fill="#ffffff"></rect></mask><linearGradient x1="15.28%" y1="-39.29%" x2="84.72%" y2="139.29%" gradientUnits="userSpaceOnUse" id="SvgjsLinearGradient1255"><stop stop-color="#0e2a47" offset="0"></stop><stop stop-color="rgba(11, 65, 135, 1)" offset="1"></stop></linearGradient></defs></svg>